<?xml version="1.0" encoding="UTF-8" standalone="no"?>
<svg width="256px" height="256px" viewBox="0 0 256 256" version="1.1" xmlns="http://www.w3.org/2000/svg" xmlns:xlink="http://www.w3.org/1999/xlink">
    <!-- Generator: Sketch 42 (36781) - http://www.bohemiancoding.com/sketch -->
    <title>icon-mask</title>
    <desc>Created with Sketch.</desc>
    <defs></defs>
    <g id="Page-1" stroke="none" stroke-width="1" fill="none" fill-rule="evenodd">
        <g id="icon-mask" fill="#000000">
            <g id="Logo" transform="translate(17.000000, 3.000000)">
                <path d="M-1.42108547e-14,0 L-1.42108547e-14,228.991608 L27.4867685,250 L27.4867685,28.3703945 L149.362657,28.3703945 C154.740754,28.3703945 195.061626,31.8563523 194.794739,83.3974612 L194.794739,83.3974612 C194.513664,137.720599 154.268602,139.190073 149.621121,139.190073 L149.621121,139.190073 L78.0269559,139.190073 L78.0269559,250 L104.627054,228.991608 L104.627054,166.673464 L149.457087,166.673464 C150.608428,166.673464 178.12357,166.419021 199.144741,145.75949 L199.144741,145.75949 C214.207491,130.954808 221.858566,109.517764 221.998216,82.7422927 L221.998216,82.7422927 C222.412734,2.64771436 150.447941,0.020834183 149.721758,0.00443280488 L149.721758,0.00443280488 L-1.42108547e-14,0 Z" id="P"></path>
                <polygon id="Key-Hole" points="123.053254 86.9947449 109.682596 75.6095765 80 75.6095765 80 88.2796175 105.510757 88.2796175 124.283372 105 141.027502 88.1284561 153.748112 101.016065 166 92.7336387 153.485364 81.345849 140.970287 70"></polygon>
            </g>
        </g>
    </g>
</svg>