<?xml version="1.0" encoding="UTF-8"?>
<svg width="512px" height="512px" viewBox="0 0 512 512" version="1.1" xmlns="http://www.w3.org/2000/svg" xmlns:xlink="http://www.w3.org/1999/xlink">
    <defs>
        <linearGradient x1="-2.22044605e-14%" y1="2.83276945e-14%" x2="100%" y2="100%" id="linearGradient-1">
            <stop stop-color="#89369C" offset="0%"></stop>
            <stop stop-color="#541785" offset="100%"></stop>
        </linearGradient>
    </defs>
    <g id="patrol-icon" stroke="none" stroke-width="1" fill="none" fill-rule="evenodd">
        <g id="Patrol" transform="translate(0.000000, 3.000000)" fill="url(#linearGradient-1)">
            <g id="icon" transform="translate(5.000000, 2.000000)">
                <path d="M-3.55271368e-14,6 C-3.5932949e-14,2.6862915 2.6862915,-2.26764957e-13 6,-2.27373675e-13 L293.088114,-2.27373675e-13 C432.696891,0.948346006 502.218302,56.1004178 501.652346,165.456215 C501.652346,278.253713 411.334788,335.536643 230.699672,337.305007 C229.96763,337.312174 229.240457,337.185311 228.554086,336.930688 C225.447269,335.778152 223.863011,332.325264 225.015547,329.218447 L255.54834,246.913148 C256.420935,244.560949 258.664896,243 261.173733,243 L341.473504,233 C343.398189,233 345.206042,232.076669 346.334357,230.517401 C348.276964,227.832826 347.67548,224.081754 344.990905,222.139147 L130.517401,105.886964 C129.494073,105.146465 128.263146,104.747816 127,104.747816 C123.686292,104.747816 121,107.434108 121,110.747816 L121,456 C121,459.313708 118.313708,462 115,462 L6,502 C2.6862915,502 -5.64376066e-14,499.313708 -5.68434189e-14,496 L-3.55271368e-14,6 Z" id="P"></path>
            </g>
        </g>
    </g>
</svg>
