<!-- Generator: Adobe Illustrator 24.2.1, SVG Export Plug-In  -->
<svg version="1.1" xmlns="http://www.w3.org/2000/svg" xmlns:xlink="http://www.w3.org/1999/xlink" x="0px" y="0px" width="544.2px"
     height="544.2px" viewBox="0 0 544.2 544.2" style="overflow:visible;enable-background:new 0 0 544.2 544.2;"
     xml:space="preserve">
<defs>
</defs>
<g>
    <path style="fill:#615661;" d="M272.1,0C2.1,0,0,121.8,0,272.1s2.1,272.1,272.1,272.1s272.1-121.8,272.1-272.1S542.1,0,272.1,0z"/>
    <path style="fill:#FFFFFF;" d="M290.8,141.3h-9.3c-5.1,0-9.3,4.2-9.3,9.3v15.9c-8.5-4.1-17.9-6.5-28-6.5l-28.5,0l-60-36
        c-6.2-3.7-14.1,0.7-14.1,8v34.6c-22,10.5-37.4,32.8-37.4,58.8c0,34.6,27,62.6,60.9,64.9l-41.1,70.5c-3.7,6.4-4.7,14.1-2.8,21.2
        c1.9,7.2,6.6,13.4,13.1,17l32.3,18.7c6.5,3.7,14.1,4.7,21.3,2.8c7.2-2,13.3-6.6,17-13.1l67.4-116.7v8.8c0,5.1,4.2,9.3,9.3,9.3h9.3
        c5.1,0,9.3-4.1,9.3-9.2V150.5C300.1,145.4,295.9,141.3,290.8,141.3z M169.4,238.9c-7.7,0-14-6.3-14-14s6.3-14,14-14s14,6.3,14,14
        C183.4,233.1,177.1,238.9,169.4,238.9z M225.4,238.9c-7.7,0-14-6.3-14-14s6.3-14,14-14s14,6.3,14,14
        C239.4,233.1,233.2,238.9,225.4,238.9z M436.4,192.4c-2.5-1.8-5.5-2.3-8.4-1.3l-43.8,14.6h-37.4v-36.3c0-5.2-4.2-9.3-9.3-9.3
        l-9.3,0c-5.1,0-9.3,4.2-9.3,9.3v112.1c0,5.1,4.2,9.3,9.3,9.3l9.3,0c5.2,0,9.3-4.2,9.3-9.3V243h37.4l43.6,14.6
        c2.8,0.9,6,0.4,8.5-1.3c2.4-1.8,3.9-4.6,3.9-7.6V200C440.2,196.9,438.8,194.1,436.4,192.4z"/>
</g>
</svg>
